<?xml version="1.0" standalone="no"?>
<!DOCTYPE svg PUBLIC "-//W3C//DTD SVG 20010904//EN"
 "http://www.w3.org/TR/2001/REC-SVG-20010904/DTD/svg10.dtd">
<svg version="1.0" xmlns="http://www.w3.org/2000/svg"
 width="512.000000pt" height="512.000000pt" viewBox="0 0 512.000000 512.000000"
 preserveAspectRatio="xMidYMid meet">
<metadata>
Created by potrace 1.16, written by Peter Selinger 2001-2019
</metadata>
<g transform="translate(0.000000,512.000000) scale(0.100000,-0.100000)"
fill="#000000" stroke="none">
<path d="M2524 3289 c-51 -14 -79 -53 -79 -109 0 -37 6 -54 24 -74 l24 -25
-18 -98 c-46 -265 -108 -447 -159 -471 -49 -22 -119 50 -252 258 -82 128 -83
131 -71 165 25 72 5 130 -55 158 -34 16 -55 15 -111 -8 -25 -10 -47 -57 -47
-99 0 -40 37 -91 74 -100 28 -7 38 -38 61 -209 25 -182 16 -256 -34 -277 -47
-19 -81 -2 -172 89 -137 138 -150 156 -144 199 15 99 -105 161 -184 94 -26
-22 -34 -37 -38 -74 -5 -44 -3 -50 30 -83 24 -24 44 -35 64 -35 26 0 31 -5 48
-52 10 -29 22 -59 28 -65 5 -7 7 -13 4 -13 -3 0 1 -17 10 -37 8 -21 22 -63 30
-93 16 -61 17 -65 29 -130 10 -56 9 -51 18 -78 l7 -22 949 0 949 0 6 48 c11
85 63 276 97 357 30 72 36 80 66 86 63 13 106 81 87 138 -9 30 -51 70 -82 77
-74 19 -150 -45 -139 -117 5 -33 1 -42 -58 -110 -160 -186 -235 -226 -283
-152 -30 46 -23 210 18 405 8 37 16 48 40 58 94 39 90 169 -7 206 -37 14 -45
14 -77 1 -19 -9 -43 -27 -53 -41 -20 -31 -22 -99 -4 -121 10 -12 6 -26 -23
-79 -59 -107 -146 -233 -201 -291 -106 -112 -152 -62 -225 250 -59 248 -60
259 -30 291 47 50 29 151 -30 173 -47 17 -56 18 -87 10z"/>
<path d="M1594 2047 c-2 -7 -3 -58 -2 -113 l3 -99 957 -2 958 -3 5 23 c3 12 5
63 3 112 l-3 90 -958 3 c-788 2 -958 0 -963 -11z"/>
</g>
</svg>
